<mxfile host="app.diagrams.net" modified="2023-07-29T08:36:56.503Z" agent="Mozilla/5.0 (Windows NT 10.0; Win64; x64; rv:109.0) Gecko/20100101 Firefox/115.0" version="21.6.5" etag="2ESP3DM87XBruFBWVQfR" type="github">
  <diagram name="PÃ¡gina-1" id="egS125PDktv9mg1hkjMi">
    <mxGraphModel>
      <root>
        <mxCell id="0" />
        <mxCell id="1" parent="0" />
      </root>
    </mxGraphModel>
  </diagram>
</mxfile>
